<svg width="350" height="120" viewBox="0 0 350 120" xmlns="http://www.w3.org/2000/svg">
                        <defs>
                            <linearGradient id="grad4" x1="0%" y1="0%" x2="100%" y2="100%">
                                <stop offset="0%" style="stop-color:#818cf8;stop-opacity:1" />
                                <stop offset="100%" style="stop-color:#a78bfa;stop-opacity:1" />
                            </linearGradient>
                        </defs>
                        <rect width="350" height="120" fill="#1a1a1a"/>
                        <path d="M 45 35 Q 35 35 30 45 Q 28 55 32 65 Q 35 70 45 72 Q 50 73 55 72" stroke="url(#grad4)" stroke-width="3" fill="none"/>
                        <path d="M 75 35 Q 85 35 90 45 Q 92 55 88 65 Q 85 70 75 72 Q 70 73 65 72" stroke="url(#grad4)" stroke-width="3" fill="none"/>
                        <path d="M 55 72 Q 60 74 65 72" stroke="url(#grad4)" stroke-width="3" fill="none"/>
                        <path d="M 45 35 Q 50 32 55 32 Q 60 32 65 32 Q 70 32 75 35" stroke="url(#grad4)" stroke-width="3" fill="none"/>
                        <circle cx="42" cy="50" r="3" fill="#818cf8"/>
                        <circle cx="60" cy="45" r="3" fill="#818cf8"/>
                        <circle cx="78" cy="50" r="3" fill="#818cf8"/>
                        <circle cx="50" cy="60" r="3" fill="#a78bfa"/>
                        <circle cx="70" cy="60" r="3" fill="#a78bfa"/>
                        <rect x="35" y="80" width="8" height="15" fill="#34d399" rx="2"/>
                        <rect x="48" y="75" width="8" height="20" fill="#34d399" rx="2"/>
                        <rect x="61" y="78" width="8" height="17" fill="#f87171" rx="2"/>
                        <rect x="74" y="72" width="8" height="23" fill="#34d399" rx="2"/>
                        <text x="140" y="75" font-family="Arial, sans-serif" font-size="36" font-weight="700" fill="#ffffff">NextTrade</text>
                    </svg>