<svg width="350" height="120" viewBox="0 0 350 120" xmlns="http://www.w3.org/2000/svg">
                        <rect width="350" height="120" fill="#1a1a1a"/>
                        <circle cx="60" cy="60" r="55" fill="#667eea" opacity="0.2"/>
                        <path d="M 30 70 L 40 70 L 40 60 L 50 60" stroke="#818cf8" stroke-width="3" fill="none"/>
                        <circle cx="50" cy="60" r="3" fill="#818cf8"/>
                        <path d="M 50 60 L 60 60 L 60 50" stroke="#818cf8" stroke-width="3" fill="none"/>
                        <circle cx="60" cy="50" r="3" fill="#818cf8"/>
                        <rect x="42" y="40" width="6" height="25" fill="#34d399" rx="1"/>
                        <line x1="45" y1="35" x2="45" y2="65" stroke="#34d399" stroke-width="2"/>
                        <rect x="52" y="35" width="6" height="20" fill="#34d399" rx="1"/>
                        <line x1="55" y1="30" x2="55" y2="55" stroke="#34d399" stroke-width="2"/>
                        <rect x="62" y="45" width="6" height="18" fill="#f87171" rx="1"/>
                        <line x1="65" y1="40" x2="65" y2="63" stroke="#f87171" stroke-width="2"/>
                        <rect x="72" y="38" width="6" height="22" fill="#34d399" rx="1"/>
                        <line x1="75" y1="33" x2="75" y2="60" stroke="#34d399" stroke-width="2"/>
                        <circle cx="75" cy="75" r="4" fill="#a78bfa"/>
                        <circle cx="85" cy="70" r="4" fill="#a78bfa"/>
                        <circle cx="80" cy="85" r="4" fill="#a78bfa"/>
                        <line x1="75" y1="75" x2="85" y2="70" stroke="#a78bfa" stroke-width="2" opacity="0.5"/>
                        <line x1="75" y1="75" x2="80" y2="85" stroke="#a78bfa" stroke-width="2" opacity="0.5"/>
                        <line x1="85" y1="70" x2="80" y2="85" stroke="#a78bfa" stroke-width="2" opacity="0.5"/>
                        <text x="140" y="75" font-family="Arial, sans-serif" font-size="36" font-weight="700" fill="#ffffff">NextTrade</text>
                    </svg>